<svg xmlns="http://www.w3.org/2000/svg" viewBox="0 0 76.66 78.34"><defs><style>.cls-1{fill:#75af43;}</style></defs><g id="Layer_2" data-name="Layer 2"><g id="Layer_1-2" data-name="Layer 1"><path class="cls-1" d="M50.76,41.65a.76.76,0,0,0-.74-.91h-.38a.75.75,0,0,0-.61.32c-2.8,3.85-4.65,1.22-5.3-.07a.77.77,0,0,0-.69-.43,4.65,4.65,0,0,1-1.55-.39.71.71,0,0,1-.43-.45c-1.13-3.21,1.78-5.83,2.31-6.27a.87.87,0,0,1,.18-.11c1.2-.51.83-2.56.67-3.24a.65.65,0,0,0-.2-.35c-1.19-1.2,0-3.07.87-4.2a15.13,15.13,0,0,0-17.06,3.78c.1,0,.21,0,.31,0a1,1,0,0,1,.72.18,4.11,4.11,0,0,0,.53.34.93.93,0,0,0,.87,0,2.89,2.89,0,0,1,1.95-.13l.14.06a4.38,4.38,0,0,1,2.51,5.39.89.89,0,0,1-.15.31c-.61.79,0,2.41.27,3.06a.94.94,0,0,1,0,.64,3,3,0,0,1-2.81,2.17,1,1,0,0,0-.86.89c-.14,2.16-1.2,2.37-1.49,2.38a.86.86,0,0,0-.17,0,1.37,1.37,0,0,0-.89,1.85,1.18,1.18,0,0,0,.07.2,5.64,5.64,0,0,1,0,2.42.92.92,0,0,1-1,.79,15.15,15.15,0,0,0,25-4.08h0c-2.47-.37-2.34-2.79-2.07-4.14"/><path class="cls-1" d="M26.5,45.32a3.85,3.85,0,0,1,.75-2.43,1,1,0,0,1,.68-.35c1.07-.1,1-1.28.94-1.72a1,1,0,0,1,.18-.71,3.34,3.34,0,0,1,1.38-.82.8.8,0,0,1,.27,0,2.46,2.46,0,0,0,1.14-.31,1,1,0,0,0,.33-1.34,2.52,2.52,0,0,1,.1-3,1,1,0,0,0,.19-.56,2.25,2.25,0,0,0-.52-1.6.94.94,0,0,0-1.09-.16,2.24,2.24,0,0,1-1.27.1,1,1,0,0,0-.24,0,1.6,1.6,0,0,1-.9-.17,1,1,0,0,0-1,.08l0,0a1,1,0,0,1-1.45-.38,15,15,0,0,0,.35,15.83l.23-2.36a.25.25,0,0,0,0-.08"/><path class="cls-1" d="M48,27.32a1.88,1.88,0,0,1-.83.51.74.74,0,0,0-.53.84,22.25,22.25,0,0,1-.11,5.66.77.77,0,0,1-.43.59,5.79,5.79,0,0,0-1.76,1.53.75.75,0,0,0,.33,1.19A3.39,3.39,0,0,1,46,38.72a.75.75,0,0,0,1.18,0,2.93,2.93,0,0,1,3.91-.66.77.77,0,0,0,.19.08c3.08.75,2.84,2.66,2.41,3.75a.75.75,0,0,0,.19.83,14.92,14.92,0,0,0,.33-3.16A15.14,15.14,0,0,0,48,27.32"/><path class="cls-1" d="M71.77,0H4.9A4.91,4.91,0,0,0,0,4.9V73.45a4.91,4.91,0,0,0,4.9,4.89H71.77a4.9,4.9,0,0,0,4.89-4.89V4.9A4.91,4.91,0,0,0,71.77,0m-21,67.68A30.69,30.69,0,0,1,39.12,70.1a30.9,30.9,0,0,1-24.5-50.19H8.8V18.19h7.36a1.64,1.64,0,0,1,1.65,1.64v8.46H16.08V21.61A28.72,28.72,0,0,0,49.93,65.66a1.11,1.11,0,0,1,1.2.23h0a1.1,1.1,0,0,1-.35,1.79M39,57A17.39,17.39,0,1,1,56.41,39.56,17.41,17.41,0,0,1,39,57m27.4,4v1.72H59.07A1.64,1.64,0,0,1,57.43,61V52.56h1.72V59.4a28.71,28.71,0,0,0-34.82-45,1.1,1.1,0,0,1-1.11-1.89A30.89,30.89,0,0,1,60.7,60.94Z"/></g></g></svg>